<svg width="40" height="35" viewBox="0 0 40 35" fill="none" xmlns="http://www.w3.org/2000/svg">
<path d="M36.9156 3.09425C35.9382 2.11329 34.7778 1.33511 33.5005 0.804189C32.2233 0.273267 30.8543 0 29.4718 0C28.0892 0 26.7202 0.273267 25.443 0.804189C24.1657 1.33511 23.0053 2.11329 22.0279 3.09425L19.9995 5.12916L17.9711 3.09425C15.9968 1.11369 13.3192 0.00102659 10.5272 0.00102661C7.73523 0.00102664 5.05759 1.11369 3.08335 3.09425C1.10911 5.07481 2.0802e-08 7.76103 0 10.562C-2.0802e-08 13.3629 1.10911 16.0491 3.08335 18.0297L5.11176 20.0646L19.9995 35L34.8872 20.0646L36.9156 18.0297C37.8935 17.0492 38.6691 15.885 39.1984 14.6037C39.7276 13.3223 40 11.9489 40 10.562C40 9.17499 39.7276 7.80161 39.1984 6.52027C38.6691 5.23894 37.8935 4.07476 36.9156 3.09425V3.09425Z" fill="white"/>
</svg>
